HIERARCHY
ROOT hip
{
  OFFSET 0 0 0
  CHANNELS 6 Xposition Yposition Zposition Zrotation Yrotation Xrotation
  JOINT abdomen
  {
    OFFSET 0 20.6881 -0.73152
    CHANNELS 3 Zrotation Xrotation Yrotation
    JOINT chest
    {
      OFFSET 0 11.7043 -0.48768
      CHANNELS 3 Zrotation Xrotation Yrotation
      JOINT neck
      {
        OFFSET 0 22.1894 -2.19456
        CHANNELS 3 Zrotation Xrotation Yrotation
        JOINT head
        {
          OFFSET -0.24384 7.07133 1.2192
          CHANNELS 3 Zrotation Xrotation Yrotation
          JOINT leftEye
          {
            OFFSET 4.14528 8.04674 8.04672
            CHANNELS 3 Zrotation Xrotation Yrotation
            End Site
            {
              OFFSET 1 0 0
            }
          }
          JOINT rightEye
          {
            OFFSET -3.6576 8.04674 8.04672
            CHANNELS 3 Zrotation Xrotation Yrotation
            End Site
            {
              OFFSET 1 0 0
            }
          }
        }
      }
      JOINT rCollar
      {
        OFFSET -2.68224 19.2634 -4.8768
        CHANNELS 3 Zrotation Xrotation Yrotation
        JOINT rShldr
        {
          OFFSET -8.77824 -1.95073 1.46304
          CHANNELS 3 Zrotation Xrotation Yrotation
          JOINT rForeArm
          {
            OFFSET -28.1742 -1.7115 0.48768
            CHANNELS 3 Zrotation Xrotation Yrotation
            JOINT rHand
            {
              OFFSET -22.5879 0.773209 7.07136
              CHANNELS 3 Zrotation Xrotation Yrotation
              JOINT rThumb1
              {
                OFFSET -1.2192 -0.487915 3.41376
                CHANNELS 3 Zrotation Xrotation Yrotation
                JOINT rThumb2
                {
                  OFFSET -3.37035 -0.52449 3.41376
                  CHANNELS 3 Zrotation Xrotation Yrotation
                  End Site
                  {
                    OFFSET -1.78271 -1.18214 1.43049
                  }
                }
              }
              JOINT rIndex1
              {
                OFFSET -7.75947 0.938293 5.60832
                CHANNELS 3 Zrotation Xrotation Yrotation
                JOINT rIndex2
                {
                  OFFSET -2.54057 -0.884171 1.56538
                  CHANNELS 3 Zrotation Xrotation Yrotation
                  End Site
                  {
                    OFFSET -1.62519 -0.234802 1.16502
                  }
                }
              }
              JOINT rMid1
              {
                OFFSET -8.24714 1.18213 3.41376
                CHANNELS 3 Zrotation Xrotation Yrotation
                JOINT rMid2
                {
                  OFFSET -3.10165 -0.590103 1.0647
                  CHANNELS 3 Zrotation Xrotation Yrotation
                  End Site
                  {
                    OFFSET -2.48547 -0.328903 0.83742
                  }
                }
              }
              JOINT rRing1
              {
                OFFSET -8.82822 0.546677 1.51678
                CHANNELS 3 Zrotation Xrotation Yrotation
                JOINT rRing2
                {
                  OFFSET -2.60934 -0.819778 -0.0198488
                  CHANNELS 3 Zrotation Xrotation Yrotation
                  End Site
                  {
                    OFFSET -2.33842 -0.294052 0.168128
                  }
                }
              }
              JOINT rPinky1
              {
                OFFSET -8.27202 -0.0477905 -0.4584
                CHANNELS 3 Zrotation Xrotation Yrotation
                JOINT rPinky2
                {
                  OFFSET -1.82734 -0.647385 -0.700984
                  CHANNELS 3 Zrotation Xrotation Yrotation
                  End Site
                  {
                    OFFSET -1.69225 -0.51767 -0.607171
                  }
                }
              }
            }
          }
        }
      }
      JOINT lCollar
      {
        OFFSET 2.68224 19.2634 -4.8768
        CHANNELS 3 Zrotation Xrotation Yrotation
        JOINT lShldr
        {
          OFFSET 8.77824 -1.95073 1.46304
          CHANNELS 3 Zrotation Xrotation Yrotation
          JOINT lForeArm
          {
            OFFSET 28.1742 -1.7115 0.48768
            CHANNELS 3 Zrotation Xrotation Yrotation
            JOINT lHand
            {
              OFFSET 22.5879 0.773209 7.07136
              CHANNELS 3 Zrotation Xrotation Yrotation
              JOINT lThumb1
              {
                OFFSET 1.2192 -0.487915 3.41376
                CHANNELS 3 Zrotation Xrotation Yrotation
                JOINT lThumb2
                {
                  OFFSET 3.37035 -0.52449 3.41376
                  CHANNELS 3 Zrotation Xrotation Yrotation
                  End Site
                  {
                    OFFSET 1.78271 -1.18214 1.43049
                  }
                }
              }
              JOINT lIndex1
              {
                OFFSET 7.75947 0.938293 5.60832
                CHANNELS 3 Zrotation Xrotation Yrotation
                JOINT lIndex2
                {
                  OFFSET 2.54057 -0.884171 1.56538
                  CHANNELS 3 Zrotation Xrotation Yrotation
                  End Site
                  {
                    OFFSET 1.62519 -0.234802 1.16502
                  }
                }
              }
              JOINT lMid1
              {
                OFFSET 8.24714 1.18213 3.41376
                CHANNELS 3 Zrotation Xrotation Yrotation
                JOINT lMid2
                {
                  OFFSET 3.10165 -0.590103 1.0647
                  CHANNELS 3 Zrotation Xrotation Yrotation
                  End Site
                  {
                    OFFSET 2.48547 -0.328903 0.83742
                  }
                }
              }
              JOINT lRing1
              {
                OFFSET 8.82822 0.546677 1.51678
                CHANNELS 3 Zrotation Xrotation Yrotation
                JOINT lRing2
                {
                  OFFSET 2.60934 -0.819778 -0.0198488
                  CHANNELS 3 Zrotation Xrotation Yrotation
                  End Site
                  {
                    OFFSET 2.33842 -0.294052 0.168128
                  }
                }
              }
              JOINT lPinky1
              {
                OFFSET 8.27202 -0.0477905 -0.4584
                CHANNELS 3 Zrotation Xrotation Yrotation
                JOINT lPinky2
                {
                  OFFSET 1.82734 -0.647385 -0.700984
                  CHANNELS 3 Zrotation Xrotation Yrotation
                  End Site
                  {
                    OFFSET 1.69225 -0.51767 -0.607171
                  }
                }
              }
            }
          }
        }
      }
    }
  }
  JOINT rButtock
  {
    OFFSET -8.77824 4.35084 1.2192
    CHANNELS 3 Zrotation Xrotation Yrotation
    JOINT rThigh
    {
      OFFSET 0 -1.70687 -2.19456
      CHANNELS 3 Zrotation Xrotation Yrotation
      JOINT rShin
      {
        OFFSET 0 -36.8199 0.73152
        CHANNELS 3 Zrotation Xrotation Yrotation
        JOINT rFoot
        {
          OFFSET 0.73152 -45.1104 -5.12064
          CHANNELS 3 Zrotation Xrotation Yrotation
          End Site
          {
            OFFSET -1.1221 -3.69964 12.103
          }
        }
      }
    }
  }
  JOINT lButtock
  {
    OFFSET 8.77824 4.35084 1.2192
    CHANNELS 3 Zrotation Xrotation Yrotation
    JOINT lThigh
    {
      OFFSET 0 -1.70687 -2.19456
      CHANNELS 3 Zrotation Xrotation Yrotation
      JOINT lShin
      {
        OFFSET 0 -36.8199 0.73152
        CHANNELS 3 Zrotation Xrotation Yrotation
        JOINT lFoot
        {
          OFFSET -0.73152 -45.1104 -5.12064
          CHANNELS 3 Zrotation Xrotation Yrotation
          End Site
          {
            OFFSET 1.1221 -3.69964 12.103
          }
        }
      }
    }
  }
}
MOTION
Frames:	4
Frame Time:	0.03333
2.154397851438433 32.42615574500087 37.551218204199685 156.75857543945312 -53.245731353759766 -152.540771484375 -11.950255393981934 27.6380558013916 13.635043144226074 -7.8955583572387695 -9.616520881652832 2.220512628555298 1.9886682033538818 13.9269437789917 14.452640533447266 -6.178891658782959 -15.42763614654541 26.769243240356445 -0.15861725807189941 -0.06732988357543945 -0.027251603081822395 -0.1140061616897583 0.0558183528482914 0.0822615772485733 0.002499754773452878 -0.1242692843079567 0.09009011089801788 51.89483642578125 66.4883041381836 -0.303596168756485 -28.17084312438965 -38.60755920410156 81.63813781738281 -0.2693551778793335 7.326590061187744 0.8996490836143494 0.07660295069217682 -0.040364619344472885 -0.026361599564552307 -0.07263792306184769 0.03253871574997902 -0.05839463323354721 0.07889150083065033 0.040143925696611404 -0.06015670672059059 7.564502239227295 5.4757981300354 0.34352752566337585 -0.0817750096321106 -0.18344390392303467 -0.06652206927537918 2.9761784076690674 1.0563818216323853 0.04921138286590576 -0.007158560678362846 0.09403526782989502 0.006992686539888382 10.406864166259766 0.6642029881477356 -0.06591489911079407 -0.12152335792779922 -0.033664997667074203 -0.059016212821006775 2.3257548809051514 -0.705763578414917 -0.11765975505113602 -0.06390127539634705 -0.07371189445257187 -0.05793707072734833 -59.709510803222656 19.39183807373047 -5.945816516876221 27.198894500732422 -43.46809387207031 -90.60449981689453 0.9418078064918518 -25.533205032348633 4.002087116241455 -0.0722334235906601 0.10661698132753372 -0.04676055163145065 -0.010515023022890091 -0.07989739626646042 0.09198393672704697 -0.0028375149704515934 0.04883832857012749 0.12340281158685684 -7.8897013664245605 5.463789939880371 -0.2749759554862976 0.06495996564626694 0.10039576143026352 0.10456360876560211 -2.8983407020568848 1.1307125091552734 -0.17015883326530457 -0.1476946324110031 -0.06967479735612869 -0.043093129992485046 -10.239480972290039 0.5990617871284485 -0.07454589009284973 -0.09399019926786423 -0.04364059865474701 0.004934848751872778 -2.1676928997039795 -0.683825671672821 0.3310428857803345 0.03494388237595558 0.19163313508033752 -0.07647371292114258 -54.66039276123047 -55.42596435546875 -35.91920471191406 -3.756892442703247 77.94379425048828 4.790404796600342 3.8342397212982178 -19.876222610473633 6.976695537567139 -0.018476521596312523 -0.11323527246713638 0.033439718186855316 23.46460723876953 -33.89079284667969 18.882356643676758 1.0163486003875732 63.13685989379883 -3.6315956115722656 -1.195698857307434 -6.8433027267456055 -1.9509507417678833
2.0809778001724384 31.605098704873637 38.05684179389095 158.1678466796875 -53.89567565917969 -154.23980712890625 -12.681248664855957 27.557544708251953 13.744909286499023 -7.325270652770996 -9.917346954345703 2.241319179534912 1.8250738382339478 14.048853874206543 14.622722625732422 -5.695336818695068 -16.027982711791992 27.193599700927734 -0.16056644916534424 -0.08900796622037888 -0.014180129393935204 -0.09236928820610046 0.11141413450241089 0.03452519699931145 -0.023802949115633965 -0.07231605798006058 0.12580572068691254 56.343868255615234 65.84725952148438 -4.567319393157959 -28.146839141845703 -38.965572357177734 82.25942993164062 -0.37603405117988586 7.277958869934082 0.8886139392852783 0.09748895466327667 0.03247615694999695 -0.02160204015672207 -0.027056556195020676 0.03558734431862831 -0.0007336739217862487 0.08729424327611923 0.07141216099262238 -0.06650111079216003 7.536895751953125 5.46639347076416 0.31095534563064575 -0.11300041526556015 -0.19150860607624054 -0.06794585287570953 2.943025827407837 1.077396035194397 0.02804250456392765 -0.035723768174648285 0.08511693775653839 0.00810435600578785 10.426689147949219 0.6673582792282104 -0.09985115379095078 -0.11783420294523239 -0.05362103506922722 -0.060853954404592514 2.313805103302002 -0.7266339063644409 -0.1597595363855362 -0.0735018327832222 -0.048198964446783066 -0.034072767943143845 -59.19049835205078 22.053394317626953 -7.369309902191162 26.936298370361328 -44.07289123535156 -91.7500991821289 0.865522563457489 -25.426252365112305 3.95405650138855 -0.06329509615898132 0.10686199367046356 -0.06197197735309601 -0.006135241594165564 -0.13729919493198395 0.030682235956192017 -0.031652215868234634 0.08135344833135605 0.13517281413078308 -7.8840460777282715 5.451577186584473 -0.2650264501571655 0.0981270968914032 0.1001315787434578 0.08571958541870117 -2.850684404373169 1.097456693649292 -0.11570777744054794 -0.13955157995224 -0.09346882253885269 -0.037046726793050766 -10.196054458618164 0.6374936699867249 -0.020562319085001945 -0.11938502639532089 -0.06326249986886978 -0.0024625728838145733 -2.1861116886138916 -0.6890611052513123 0.34891578555107117 0.011894925497472286 0.13431695103645325 -0.1016409769654274 -56.19120407104492 -55.779117584228516 -37.53279113769531 -4.7609171867370605 80.21794128417969 5.7825446128845215 4.076562881469727 -20.187824249267578 7.0803656578063965 0.03014432080090046 -0.05414387956261635 0.05075414851307869 22.96980094909668 -33.36791229248047 18.297788619995117 1.0507960319519043 63.745201110839844 -3.6250150203704834 -0.3872150182723999 -10.535027503967285 2.3890843391418457
2.0440700192186285 30.92638963723864 38.5399603905147 159.0161590576172 -55.15545654296875 -155.25982666015625 -13.240303993225098 27.35651969909668 13.762468338012695 -6.798419952392578 -10.183100700378418 2.2424392700195312 1.696489930152893 14.154470443725586 14.784143447875977 -5.318936824798584 -16.463024139404297 27.55551528930664 -0.13269467651844025 -0.12637092173099518 -0.004644359461963177 -0.05840473622083664 0.15035854279994965 0.008600147441029549 -0.0517585463821888 -0.030486661940813065 0.1695195436477661 60.74927520751953 64.55331420898438 -8.827337265014648 -28.079816818237305 -39.152069091796875 82.6524887084961 -0.3878069221973419 7.657447814941406 0.9446408152580261 0.10054539889097214 0.059349484741687775 -0.0032552063930779696 0.024138106033205986 0.04589216038584709 0.05572996661067009 0.08944980800151825 0.10826589167118073 -0.030404744669795036 7.521589279174805 5.470121383666992 0.2801787853240967 -0.13607558608055115 -0.15253758430480957 -0.062369994819164276 2.8974361419677734 1.0939477682113647 0.008750622160732746 -0.03815247118473053 0.06555534899234772 -0.02364206500351429 10.408236503601074 0.6612489223480225 -0.0863097682595253 -0.1306663453578949 -0.023351138457655907 -0.05743163451552391 2.3082785606384277 -0.7781704664230347 -0.2112910896539688 -0.04787968471646309 -0.03324410319328308 -0.004600798711180687 -58.41157150268555 24.74772834777832 -8.96515941619873 26.7592716217041 -44.405967712402344 -92.3923110961914 0.8349529504776001 -25.869678497314453 3.9425535202026367 -0.03407210111618042 0.11654193699359894 -0.08246530592441559 -0.022825244814157486 -0.15253008902072906 -0.02578541822731495 -0.03926914557814598 0.1089756041765213 0.13381291925907135 -7.880342960357666 5.446810245513916 -0.24491141736507416 0.10637865960597992 0.08862636238336563 0.07241816073656082 -2.815061569213867 1.0712409019470215 -0.06206836178898811 -0.10577310621738434 -0.12593267858028412 -0.022982735186815262 -10.194628715515137 0.6725201606750488 0.00835015531629324 -0.18242321908473969 -0.058976393193006516 -0.0031027907971292734 -2.204745292663574 -0.7364471554756165 0.3534294664859772 -0.037278808653354645 0.08300897479057312 -0.10081709176301956 -57.511234283447266 -56.068504333496094 -38.924381256103516 -5.977449417114258 81.91691589355469 7.011528015136719 4.044951915740967 -20.523237228393555 6.63277006149292 0.06758730858564377 -0.005104588344693184 0.06327831000089645 23.214487075805664 -33.48418426513672 18.301467895507812 1.0515209436416626 64.53459930419922 -3.6337621212005615 0.39270055294036865 -13.379305839538574 6.4046807289123535
2.0452174909991907 30.359132181385327 39.04557453533501 159.70718383789062 -56.578887939453125 -156.0206756591797 -13.458582878112793 27.045869827270508 13.696550369262695 -6.383613586425781 -10.436068534851074 2.2441110610961914 1.583101749420166 14.264100074768066 14.953564643859863 -4.993275165557861 -16.68122673034668 27.843666076660156 -0.08195941150188446 -0.15543758869171143 -0.0010896649910137057 -0.01731128618121147 0.1645268052816391 0.00656343437731266 -0.07159456610679626 0.0052297282963991165 0.1846131980419159 65.24005889892578 62.84663772583008 -13.009148597717285 -27.999298095703125 -39.24382400512695 82.91771697998047 -0.376071035861969 8.249634742736816 1.0013043880462646 0.07344672828912735 0.037737611681222916 0.013182762078940868 0.040015604346990585 0.048434529453516006 0.09029998630285263 0.07217077910900116 0.1373574286699295 0.025070806965231895 7.528244972229004 5.478877067565918 0.24980932474136353 -0.1557612270116806 -0.08943983167409897 -0.06353546679019928 2.8583905696868896 1.1051148176193237 0.00035787420347332954 -0.030147138983011246 0.04679461941123009 -0.055532317608594894 10.370989799499512 0.6425544023513794 -0.04189643636345863 -0.16010889410972595 0.02888076938688755 -0.05959322303533554 2.307143211364746 -0.8226760625839233 -0.2557123601436615 -0.019490856677293777 -0.016635561361908913 0.02661760523915291 -57.1977424621582 27.481069564819336 -11.06220817565918 26.663246154785156 -44.564517974853516 -92.78500366210938 0.8645175099372864 -26.50234031677246 3.9528274536132812 -0.01811051554977894 0.1285519003868103 -0.0913245677947998 -0.03370899334549904 -0.13561192154884338 -0.07412533462047577 -0.04546769708395004 0.12102921307086945 0.12220022827386856 -7.87323522567749 5.432650566101074 -0.23862089216709137 0.10409501940011978 0.0722511038184166 0.07204468548297882 -2.80890154838562 1.0566315650939941 -0.033512938767671585 -0.07561412453651428 -0.13113752007484436 -0.0030039979610592127 -10.214597702026367 0.6823471784591675 0.005240670870989561 -0.24562284350395203 -0.03216385468840599 -0.006075710989534855 -2.221924066543579 -0.7831795811653137 0.3531753420829773 -0.07801729440689087 0.03799816966056824 -0.06799506396055222 -58.69740676879883 -56.12269973754883 -40.25510025024414 -7.466670036315918 83.113525390625 8.564068794250488 3.8797717094421387 -20.970767974853516 6.024240493774414 0.0756012424826622 0.012814829126000404 0.07485004514455795 24.305225372314453 -34.188941955566406 18.864421844482422 1.0615438222885132 65.60285186767578 -3.6875100135803223 1.0393916368484497 -15.476728439331055 9.115762710571289
